<?xml version="1.0" encoding="UTF-8"?>
<svg id="uuid-3ef92041-ef9f-425f-9c43-826217ffb0d9" data-name="Layer 2" xmlns="http://www.w3.org/2000/svg" width="195" height="100" viewBox="0 0 195 100">
  <defs>
    <style>
      .uuid-34af5d45-7335-4ce8-95fc-268eae9814fb {
        fill: #1d1d1d;
      }
    </style>
  </defs>
  <g id="uuid-ce0a6492-f8dd-4f28-af50-fd50540ffe01" data-name="Capa 1">
    <g>
      <g>
        <g>
          <path class="uuid-34af5d45-7335-4ce8-95fc-268eae9814fb" d="M194,4c-.6-.7-1.6-.8-2.6-.9,.8,.7,1.6,1,2.6,.9Z"/>
          <path class="uuid-34af5d45-7335-4ce8-95fc-268eae9814fb" d="M191.4,3.1h0Z"/>
          <path class="uuid-34af5d45-7335-4ce8-95fc-268eae9814fb" d="M.7,31.2c.2,0,.5,0,.8,0-.3,0-.5,0-.8,0Z"/>
          <path class="uuid-34af5d45-7335-4ce8-95fc-268eae9814fb" d="M144.3,1.1l-.2,1.2c-2.3,0-.7-1.4-2.8-1.1-.8,1.7-3.5-.2-4.3,.7,0-.1-1-.2-1-.7-.3,.9-1.1,.2-1.7,.4-.2,.3,.2,.3,.3,.6l-1.5,.3c-.6-.3-.7-.9,0-.9-3.9-.4-22.9-1.5-27.1-1.2,.5,.7,1.9,.3,2.3,1.4-1.1,.6-1.6-.3-2.2,.4-.4-1.7-2.5-.4-3.3-2.1l-.3,.9-.5-.6c-5,.9-1.1,.5-5.5,.1-2.5,0-3.8,1.3-5.2,.8,.2,0,.8,.6,0,.8,0-.8-1.8,.5-2.1-.3-.6,0-2.7,0-2.1,1.1-.3-.6-2.2-.8-1.1-1.3-.6,0-1.2-.2-1.7,0l.8,.3c-2.1,0-3.3-.8-4.7,.2l.8,.5c-1.3,0-2.3,0-2.8-1l1.3-.3c-2.1,0-3.4,0-5.1,.5h.6c-2.3,1.1-14,1.6-16.1,2.9l.9,.9-1.8,.7c.2,0,1-2.8,1.1-2.5-3.8,0-23.5-.2-27-1-1.4-.5-.2-1.4-.2-1.5-1.7,.2-.8,.9-2.2,.7-.4-.2,.1-.7,.3-.8-.6,0-1.2-.3-1.3,.1,.8,.4,.4,1.4,.7,2.1l-1.9-.2v-.7c-.3,0-1,1.8-2.9,1.3-3.1-.5-6.5-.4-9.6-.7,0-.4,.7-.6,1.4-.8-.4,0-1.1,0-1.4-.3,.7,.8-1.3,.4-.8,.7-2.4,1.5-5.3-.2-7.4,.8-.3,1.5-5.9,25.1-6,26.8-.6,0-1.3-.1-1.4-.3,.1,.4,1.4,.7,2.1,.5l.2-.9c1.5-.2,.3,.6,1.8,.6,0,.8-1.3,.9-2.6,.9,1.1,.2,2.1,.8,2.6,0,1,.4-.2,.9,1,1.3,.9-.2,2.1-.9,3.1-.3h0c2.4,1.1,3.8-.8,6,0l-.3,.2c.8,.5,2.4,0,3.8,.5-.4-.2-.7-.8,.1-.8,1.6,.6,2.8,.1,3.9,.8l1.2-.7c5.7,.5,28.3,.4,34.1,.5h-.2c8.8,0,26.7,.8,35.8,0,1.4,.8,3.3,.7,4.8,.9-.8-.3-.5-.9,.1-.8,4.4,.2,.3-.5,4.8-.7,5.2-.5,25,.6,29.6,1.2,2.5-1.1,5.6-.2,8-.9l-.2,.3c2.6-.4,17.3,.7,20.3,.3l-.4-.2c2.6-.7,2.3,.5,4.3,.9-.3-1.2,2-1.9,2.8-2v.3c1.3-.2,4.2-1.3,6.3-1.5v.7c1.7-.7,5.1-.5,6.3-.5,2.9,.3,7.5,1.4,11.4,.5l2.6,1.9,.4-.2s.9-5.8,1.2-12.2c.3-6.4,0-13.4-2.7-15.9v-.7h-.9c-1.2-.2-1.8,.6-1.7-.1h1.7c-1.2-.1-.4-.5,0-.9-.5,0-1-.1-1.4-.3-.2,.3,.2,.3,.4,.4-.7,.2-1.6,.9-2.4,.6-1.3,0,0-1.1-1.6-1.1-7.7-.4-15.2-1.2-22.9-1-.2-.3,0-.3,.3-.4-2.3,.3-4.4,.2-6.6,.5-.6-.3-.8-.7-.9-1,.4,.6-11.8,.6-12,.4Z"/>
        </g>
        <g>
          <path class="uuid-34af5d45-7335-4ce8-95fc-268eae9814fb" d="M29.4,29.1c.4-.7,1.2-.8,1.8-.9-.5,.7-1.1,1-1.8,.9Z"/>
          <path class="uuid-34af5d45-7335-4ce8-95fc-268eae9814fb" d="M31.2,28.2h0s0,0,0,0h0Z"/>
          <path class="uuid-34af5d45-7335-4ce8-95fc-268eae9814fb" d="M165.9,56.3c-.2,0-.4,0-.6,0,.2,0,.4,0,.6,0Z"/>
          <path class="uuid-34af5d45-7335-4ce8-95fc-268eae9814fb" d="M194,57.5c-.8-.2-5.9-.9-6.7-.4h0c-2,1-3.2-.9-5.1,0l.2,.2c-.6,.5-2,0-3.1,.5,.3-.2,.6-.7-.1-.8-1.3,.6-2.3,.1-3.3,.8l-1-.7c-4.8,.4-23.9,.3-28.7,.5h.2c-7.4,.1-22.7,.9-30.5,.2-1.2,.8-2.8,.7-4.1,.9,.7-.3,.4-.9-.1-.8-3.8,.2-.3-.5-4.2-.7-2.2-.3-7.6,0-12.9,.2-5.3,.3-10.5,.7-12.5,1-2.1-1.1-4.8-.2-6.8-.9l.2,.3c-1.1-.2-4.8,0-8.5,.1-3.7,.2-7.5,.3-8.8,.1l.3-.2c-2.2-.7-1.9,.5-3.7,.9,.2-1.2-1.7-1.9-2.4-2v.3c-1.1-.2-3.6-1.3-5.4-1.5v.7c-1.4-.7-4.3-.4-5.4-.5-2.5,.3-6.3,1.4-9.6,.5l-2.2,1.9-.3-.2s-3.1-23.2,1.4-28.1v-.7h.8c1-.2,1.5,.6,1.4-.1h-1.4c1-.1,.3-.5,0-.9,.4,0,.9-.1,1.2-.3,.2,.3-.2,.3-.3,.4,.6,.2,1.3,.9,2,.6,1.1,0,0-1.1,1.3-1.1,6.5-.4,12.9-1.2,19.4-1,.2-.3,0-.3-.2-.4,2,.3,3.7,.2,5.5,.5,.5-.3,.6-.7,.8-1-.1,.3,2.3,.4,4.9,.5,2.5,0,5.1,0,5.2,0v1.2c2.1,0,.7-1.4,2.5-1.1,.7,1.7,3-.2,3.6,.7,0-.1,.9-.2,.8-.7,.3,.9,.9,.2,1.5,.4,.2,.3-.1,.3-.3,.6l1.3,.3c.5-.3,.6-.9,0-.9,3.3-.3,19.1-1.5,22.6-1.2-.4,.7-1.5,.3-1.9,1.4,1,.6,1.4-.3,1.8,.4,.3-1.7,2-.5,2.7-2.1l.3,.9,.4-.6c4.2,.8,1,.5,4.6,0,2.1,0,3.2,1.3,4.4,.8-.2,0-.6,.6,0,.8,0-.8,1.5,.5,1.7-.3,.5,0,2.3-.1,1.8,1,.3-.6,1.8-.9,.9-1.3,.5,0,1-.2,1.4,0l-.7,.3c1.8,0,2.7-.8,3.9,.1l-.6,.5c1.1,0,2,0,2.3-1.1l-1.1-.3c1.8,0,2.8,0,4.4,.5h-.5c1.9,1.1,11.9,1.5,13.8,2.8l-.7,.9,1.6,.6c-.2,0-.9-2.7-1.1-2.5,3.2,0,20-.3,23-1.1,1.2-.5,.1-1.4,0-1.5,1.5,.2,.7,.9,1.9,.7,.3-.2-.1-.7-.3-.8,.6,0,1-.3,1.1,.1-.7,.3-.3,1.4-.5,2.1l1.6-.2v-.7c.2,0,.9,1.8,2.5,1.3,2.6-.4,5.5-.3,8.2-.6,0-.4-.7-.6-1.2-.8,.4,0,.9,0,1.2-.3-.6,.7,1.2,.4,.7,.7,2.1,1.5,11.3-.3,13.1,.7"/>
        </g>
      </g>
      <g>
        <path d="M2.4,91.8c-.1,0-.2-.2-.2-.4,0-.4,.2-.5,.7-.6,.6,0,1-.2,1.3-.4,.3-.2,.4-.6,.5-1s0-1.2,0-2.1v-13.1c0-1,0-1.7,0-2.1,0-.4-.2-.8-.5-1-.3-.2-.7-.4-1.3-.4-.5,0-.7-.2-.7-.6s0-.3,.2-.4c.1,0,.3-.1,.5-.1H11.4c1.4,0,2.6,.2,3.7,.7,1.1,.5,2,1.2,2.6,2,.6,.9,1,1.9,1,3s-.5,2.6-1.5,3.7c-1,1.1-2.1,1.8-3.5,2.2-.3,0-.4,.2-.4,.4s0,.1,.1,.3l4,6.2c.6,.9,1.2,1.6,1.8,2.1,.6,.4,1.2,.7,1.8,.8,.3,0,.4,.2,.4,.6s0,.3-.1,.4c0,0-.2,.1-.3,.1h-6.3c-.2,0-.4,0-.5-.1-.1,0-.2-.2-.2-.4,0-.4,.2-.5,.7-.6,.6,0,.9-.2,.9-.4s0-.3-.2-.5c-.1-.2-.3-.4-.5-.7-.6-.7-.9-1.2-1-1.3l-4-6.2c-.1-.2-.4-.4-.7-.4h-1c-.2,0-.3,0-.4,.2s-.1,.2-.1,.4v5.2c0,1,0,1.7,0,2.1,0,.4,.2,.8,.5,1,.3,.2,.7,.4,1.3,.4,.5,0,.7,.2,.7,.6s0,.3-.2,.4c-.1,0-.3,.1-.5,.1H2.9c-.2,0-.4,0-.5-.1Zm6-11.6c.7,0,1.3,0,1.8,0,.9,0,1.8-.2,2.6-.6s1.5-1,2-1.7c.5-.7,.7-1.5,.7-2.4s-.3-1.7-.8-2.5c-.5-.7-1.2-1.3-2-1.7-.8-.4-1.7-.6-2.6-.6s-1.1,0-1.7,.2c-.3,0-.5,.3-.5,.6v8.1c0,.3,.2,.5,.5,.6Z"/>
        <path d="M22.7,91.8c-.1,0-.2-.2-.2-.4,0-.4,.2-.5,.7-.6,.6,0,1-.2,1.3-.4,.3-.2,.4-.6,.5-1s0-1.2,0-2.1v-13.1c0-1,0-1.7,0-2.1,0-.4-.2-.8-.5-1-.3-.2-.7-.4-1.3-.4-.5,0-.7-.2-.7-.6s0-.3,.2-.4c.1,0,.3-.1,.5-.1h14.4c.3,0,.5,.2,.5,.5v.8l.2,2.8c0,.3,0,.6-.1,.8,0,.2-.2,.3-.4,.3-.3,0-.5-.3-.6-.9-.1-.9-.3-1.5-.6-1.9-.3-.4-.6-.6-1.1-.7s-1.2-.1-2.1-.1h-4.8c-.2,0-.3,0-.4,.1,0,0-.1,.2-.1,.4v7.6c0,.2,0,.3,.1,.4,0,0,.2,.1,.4,.1h3c1,0,1.7,0,2.1-.1,.4,0,.8-.3,1-.5,.2-.3,.4-.8,.4-1.5,0-.5,.2-.8,.6-.8s.3,0,.4,.2c0,.1,.1,.3,.1,.6v5.6c0,.2,0,.4-.1,.6,0,.1-.2,.2-.4,.2-.3,0-.5-.3-.6-.8,0-.7-.2-1.2-.4-1.5-.2-.3-.6-.5-1-.5-.4,0-1.2-.1-2.1-.1h-3c-.2,0-.3,0-.4,.1,0,0-.1,.2-.1,.4v8c0,.8,.5,1.2,1.5,1.2h3.8c.9,0,1.6,0,2.1-.2,.5-.1,.9-.4,1.2-.9s.6-1.3,.8-2.3c.2-.8,.4-1.1,.7-1.1s.2,0,.3,.2c0,.1,.1,.3,.1,.6s0,.4,0,.5l-.5,3.3-.2,1.3h-14.7c-.2,0-.4,0-.5-.1Z"/>
        <path d="M53.5,83.6c.4,.8,.6,1.7,.6,2.6s-.3,2-.8,3c-.5,.9-1.3,1.7-2.3,2.3-1,.6-2.2,.9-3.6,.9s-1,0-1.4-.1c-.4,0-1-.3-1.9-.6-1-.4-1.6-.5-1.8-.5-.4,0-.7,.3-.8,.8,0,.3-.2,.5-.4,.5s-.2,0-.3-.1c0,0-.1-.2-.1-.4v-6.7c0-.2,0-.3,.1-.4s.2-.1,.3-.1c.2,0,.4,.2,.4,.5,.4,1.8,1,3.2,1.8,4.3,.9,1.1,2.1,1.6,3.8,1.6s2.4-.3,3.1-1,1.1-1.5,1.1-2.4-.1-1.2-.4-1.7c-.3-.5-.7-1-1.2-1.5-.4-.4-1.5-1.1-3.2-2.1-1.4-.9-2.5-1.6-3.3-2.3-.8-.7-1.5-1.4-1.9-2.2s-.7-1.7-.7-2.7,.2-2,.7-2.9c.5-.9,1.2-1.5,2.2-2s2.1-.8,3.4-.8,2.2,.2,3.2,.7c.6,.3,.9,.4,1.1,.4s.4,0,.5-.2c.1-.1,.2-.3,.3-.6,0-.3,.2-.5,.5-.5s.2,0,.3,.1c0,0,.1,.2,.1,.4v6.8c0,.4-.1,.5-.4,.5s-.4-.2-.4-.5c-.2-1.6-.8-3-1.6-4.1-.9-1.2-2-1.8-3.6-1.8s-2.1,.3-2.8,.9c-.7,.6-1,1.4-1,2.2s.2,1.3,.7,1.9c.5,.6,1.1,1.1,1.7,1.6,.7,.5,1.5,1,2.6,1.6,1.8,1,3.1,1.9,3.9,2.6,.7,.6,1.3,1.3,1.6,2.2Z"/>
        <path d="M56.1,91.8c-.1,0-.2-.2-.2-.4,0-.4,.2-.5,.7-.6,.6,0,1-.2,1.3-.4,.3-.2,.4-.6,.5-1s0-1.2,0-2.1v-13.1c0-1,0-1.7,0-2.1,0-.4-.2-.8-.5-1-.3-.2-.7-.4-1.3-.4-.5,0-.7-.2-.7-.6s0-.3,.2-.4c.1,0,.3-.1,.5-.1h6.8c.2,0,.4,0,.5,.1,.1,0,.2,.2,.2,.4,0,.3-.2,.5-.7,.6-.6,0-1,.2-1.3,.4-.3,.2-.4,.6-.5,1,0,.4,0,1.2,0,2.1v13.1c0,1,0,1.7,0,2.1,0,.4,.2,.8,.5,1,.3,.2,.7,.4,1.3,.4,.5,0,.7,.2,.7,.6s0,.3-.2,.4c-.1,0-.3,.1-.5,.1h-6.8c-.2,0-.4,0-.5-.1Z"/>
        <path d="M65.5,91.8c-.1,0-.2-.2-.2-.4,0-.4,.2-.5,.7-.6,.6,0,1-.2,1.3-.4,.3-.2,.4-.6,.5-1s0-1.2,0-2.1v-13.1c0-1,0-1.7,0-2.1,0-.4-.2-.8-.5-1-.3-.2-.7-.4-1.3-.4-.5,0-.7-.2-.7-.6s0-.3,.2-.4c.1,0,.3-.1,.5-.1h8.4c3.3,0,6,.9,8,2.6,2,1.7,3,4.5,3,8.3s-.4,4.2-1.1,6c-.8,1.7-1.9,3.1-3.6,4.1-1.6,1-3.7,1.5-6.1,1.5h-8.6c-.2,0-.4,0-.5-.1Zm5.9-1.4c1,.2,1.9,.3,2.8,.3,1.8,0,3.3-.5,4.5-1.5,1.2-1,2-2.3,2.6-3.8,.5-1.5,.8-3.1,.8-4.6s-.3-3.1-.8-4.5c-.5-1.5-1.4-2.7-2.6-3.7-1.2-1-2.8-1.5-4.7-1.5s-1.7,0-2.5,.3c-.3,0-.5,.3-.5,.6v18c0,.3,.1,.5,.4,.6Z"/>
        <path d="M87.1,91.8c-.1,0-.2-.2-.2-.4,0-.4,.2-.5,.7-.6,.6,0,1-.2,1.3-.4,.3-.2,.4-.6,.5-1,0-.4,0-1.2,0-2.1v-13.1c0-1,0-1.7,0-2.1,0-.4-.2-.8-.5-1-.3-.2-.7-.4-1.3-.4-.5,0-.7-.2-.7-.6s0-.3,.2-.4c.1,0,.3-.1,.5-.1h14.4c.3,0,.5,.2,.5,.5v.8l.2,2.8c0,.3,0,.6-.1,.8,0,.2-.2,.3-.4,.3-.3,0-.5-.3-.6-.9-.1-.9-.3-1.5-.6-1.9-.3-.4-.6-.6-1.1-.7-.5,0-1.2-.1-2.1-.1h-4.8c-.2,0-.3,0-.4,.1,0,0-.1,.2-.1,.4v7.6c0,.2,0,.3,.1,.4,0,0,.2,.1,.4,.1h3c1,0,1.7,0,2.1-.1s.8-.3,1-.5c.2-.3,.4-.8,.4-1.5,0-.5,.2-.8,.6-.8s.3,0,.4,.2c0,.1,.1,.3,.1,.6v5.6c0,.2,0,.4-.1,.6,0,.1-.2,.2-.4,.2-.3,0-.5-.3-.6-.8,0-.7-.2-1.2-.4-1.5-.2-.3-.6-.5-1-.5s-1.2-.1-2.1-.1h-3c-.2,0-.3,0-.4,.1,0,0-.1,.2-.1,.4v8c0,.8,.5,1.2,1.5,1.2h3.8c.9,0,1.6,0,2.1-.2,.5-.1,.9-.4,1.2-.9,.3-.5,.6-1.3,.8-2.3,.2-.8,.4-1.1,.7-1.1s.2,0,.3,.2,.1,.3,.1,.6,0,.4,0,.5l-.5,3.3-.2,1.3h-14.7c-.2,0-.4,0-.5-.1Z"/>
        <path d="M122,92l-12.4-16.7c0-.2-.2-.2-.4-.2-.2,0-.3,.1-.3,.4v11.8c0,1,0,1.7,0,2.1s.2,.8,.5,1c.3,.2,.7,.4,1.3,.4,.5,0,.7,.2,.7,.6s0,.3-.2,.4c-.1,0-.3,.1-.5,.1h-5.2c-.2,0-.4,0-.5-.1-.1,0-.2-.2-.2-.4,0-.4,.2-.5,.7-.6,.6,0,1-.2,1.3-.4,.3-.2,.4-.6,.5-1s0-1.2,0-2.1v-14.5c0-.3,0-.5-.2-.7-.4-.4-.8-.7-1.3-1-.5-.3-1-.4-1.6-.5-.2,0-.4-.2-.4-.6s0-.3,.1-.4c0,0,.2-.1,.3-.1h4.2c.3,0,.5,.1,.7,.3l11.5,15.4c0,.2,.2,.2,.4,.2,.2,0,.3-.2,.3-.5v-10.8c0-1,0-1.7,0-2.1,0-.4-.2-.8-.5-1-.3-.2-.7-.4-1.3-.4-.5,0-.7-.2-.7-.6s0-.3,.2-.4c.1,0,.3-.1,.5-.1h5.2c.2,0,.4,0,.5,.1,.1,0,.2,.2,.2,.4,0,.3-.2,.5-.7,.6-.6,0-1,.2-1.3,.4-.3,.2-.4,.6-.5,1,0,.4,0,1.2,0,2.1v17.6c0,.4,0,.5-.3,.5s-.4-.1-.6-.3Z"/>
        <path d="M128.1,75.6c.9-1.9,2.1-3.4,3.7-4.6,1.6-1.2,3.5-1.8,5.5-1.8s1.5,0,2.2,.3c.6,.2,1.3,.5,2.1,.9,.2,.1,.4,.2,.5,.3,.1,0,.2,0,.3,0,.5,0,.8-.4,1-1.1,0-.3,.2-.5,.5-.5s.3,.2,.4,.5l.4,6.6h0c0,.2,0,.3,0,.4,0,0-.1,.1-.2,.1-.2,0-.4-.1-.5-.4-.5-1.8-1.3-3.2-2.3-4.3-1-1.1-2.4-1.7-4.2-1.7s-3.2,.5-4.2,1.6c-1.1,1.1-1.9,2.4-2.3,3.9-.5,1.6-.7,3.1-.7,4.7s.2,3.1,.7,4.6c.5,1.5,1.3,2.7,2.4,3.7,1.1,1,2.6,1.5,4.4,1.5s2-.2,2.7-.5c.8-.4,1.4-.8,2-1.4,.6-.6,1.1-1.4,1.8-2.3,.2-.3,.4-.4,.7-.2,.1,0,.2,.2,.2,.3s0,.2,0,.4c-.9,1.7-2,3-3.3,3.9-1.3,1-3,1.4-5,1.4s-4-.6-5.5-1.7c-1.5-1.1-2.6-2.5-3.3-4.2-.7-1.7-1.1-3.4-1.1-5.1s.4-3.8,1.3-5.7Z"/>
        <path d="M146.8,91.8c-.1,0-.2-.2-.2-.4,0-.4,.2-.5,.7-.6,.6,0,1-.2,1.3-.4,.3-.2,.4-.6,.5-1,0-.4,0-1.2,0-2.1v-13.1c0-1,0-1.7,0-2.1,0-.4-.2-.8-.5-1-.3-.2-.7-.4-1.3-.4-.5,0-.7-.2-.7-.6s0-.3,.2-.4c.1,0,.3-.1,.5-.1h6.8c.2,0,.4,0,.5,.1,.1,0,.2,.2,.2,.4,0,.3-.2,.5-.7,.6-.6,0-1,.2-1.3,.4-.3,.2-.4,.6-.5,1,0,.4,0,1.2,0,2.1v13.1c0,1,0,1.7,0,2.1,0,.4,.2,.8,.5,1,.3,.2,.7,.4,1.3,.4,.5,0,.7,.2,.7,.6s0,.3-.2,.4c-.1,0-.3,.1-.5,.1h-6.8c-.2,0-.4,0-.5-.1Z"/>
        <path d="M155.7,91.5c0-.4,.1-.5,.4-.6,.6,0,1-.4,1.5-.9,.4-.5,.9-1.3,1.3-2.4l6.9-18.2c0-.3,.3-.4,.5-.4s.4,.1,.5,.4l7.1,18.2c.4,1.1,.8,1.9,1.3,2.4s.9,.8,1.5,.9c.3,0,.4,.2,.4,.6s-.1,.5-.4,.5h-6.6c-.3,0-.5,0-.6-.1-.1,0-.2-.2-.2-.4,0-.4,.3-.5,.8-.6,.5,0,.9,0,1.1-.2,.2-.1,.3-.3,.3-.5s0-.4-.2-.8-.2-.6-.3-.7l-.4-1.1-1.1-2.7c-.1-.3-.3-.4-.6-.4h-6.9c-.3,0-.5,.1-.6,.4l-1,2.7-.4,1.1c0,0-.1,.3-.3,.7-.1,.3-.2,.6-.2,.8,0,.3,.1,.5,.3,.6,.2,.1,.6,.2,1.1,.2,.6,0,.8,.2,.8,.6s0,.3-.2,.4c-.1,0-.4,.1-.6,.1h-4.9c-.3,0-.4-.2-.4-.5Zm6.6-8.7c0,.3,.2,.4,.5,.4h5.4c.3,0,.5-.1,.5-.4v-.2l-2.8-7.2c0-.2-.2-.4-.4-.4s-.3,.1-.4,.4l-2.7,7.2v.2Z"/>
        <path d="M191.7,83.6c.4,.8,.6,1.7,.6,2.6s-.3,2-.8,3-1.3,1.7-2.3,2.3c-1,.6-2.2,.9-3.6,.9s-1,0-1.4-.1c-.4,0-1-.3-1.9-.6-1-.4-1.6-.5-1.8-.5-.4,0-.7,.3-.8,.8,0,.3-.2,.5-.4,.5s-.2,0-.3-.1c0,0-.1-.2-.1-.4v-6.7c0-.2,0-.3,.1-.4,0,0,.2-.1,.3-.1,.2,0,.4,.2,.4,.5,.4,1.8,1,3.2,1.8,4.3,.9,1.1,2.1,1.6,3.8,1.6s2.4-.3,3.1-1c.7-.6,1.1-1.5,1.1-2.4s-.1-1.2-.4-1.7-.7-1-1.2-1.5c-.4-.4-1.5-1.1-3.2-2.1-1.4-.9-2.5-1.6-3.3-2.3s-1.5-1.4-1.9-2.2-.7-1.7-.7-2.7,.2-2,.7-2.9c.5-.9,1.2-1.5,2.2-2s2.1-.8,3.4-.8,2.2,.2,3.2,.7c.6,.3,.9,.4,1.1,.4s.4,0,.5-.2c.1-.1,.2-.3,.3-.6,0-.3,.2-.5,.5-.5s.2,0,.3,.1c0,0,.1,.2,.1,.4v6.8c0,.4-.1,.5-.4,.5s-.4-.2-.4-.5c-.2-1.6-.8-3-1.6-4.1-.9-1.2-2-1.8-3.6-1.8s-2.1,.3-2.8,.9c-.7,.6-1,1.4-1,2.2s.2,1.3,.7,1.9c.5,.6,1.1,1.1,1.7,1.6s1.5,1,2.6,1.6c1.8,1,3.1,1.9,3.9,2.6,.7,.6,1.3,1.3,1.6,2.2Z"/>
      </g>
    </g>
  </g>
</svg>