<?xml version="1.0" encoding="UTF-8"?>
<svg id="uuid-6e0272f4-6575-4af8-8da5-cea71160aada" data-name="Layer 2" xmlns="http://www.w3.org/2000/svg" width="247.9" height="43.6" viewBox="0 0 247.9 43.6">
  <defs>
    <style>
      .uuid-15681ac3-b7e1-46af-a439-00285ffd10d2 {
        fill: #1d1d1d;
      }
    </style>
  </defs>
  <g id="uuid-94170ada-e762-4307-ac09-bdfd93583b75" data-name="Capa 1">
    <g>
      <g>
        <g>
          <path class="uuid-15681ac3-b7e1-46af-a439-00285ffd10d2" d="M129.1,2.8c-.4-.5-1.1-.5-1.7-.6,.5,.5,1,.7,1.7,.6Z"/>
          <path class="uuid-15681ac3-b7e1-46af-a439-00285ffd10d2" d="M127.3,2.2h0Z"/>
          <path class="uuid-15681ac3-b7e1-46af-a439-00285ffd10d2" d="M.4,20.9c.2,0,.4,0,.5,0-.2,0-.4,0-.5,0Z"/>
          <path class="uuid-15681ac3-b7e1-46af-a439-00285ffd10d2" d="M96,.9v.8c-1.6,0-.5-.9-2-.7-.6,1.1-2.4-.1-2.9,.5,0,0-.7-.1-.6-.5-.2,.6-.7,.1-1.2,.3-.2,.2,.1,.2,.2,.4l-1,.2c-.4-.2-.5-.6,0-.6-2.6-.2-15.2-1-18-.8,.4,.5,1.2,.2,1.5,.9-.8,.4-1.1-.2-1.4,.3-.3-1.1-1.6-.3-2.2-1.4l-.2,.6-.4-.4c-3.3,.6-.8,.3-3.7,0-1.7,0-2.5,.9-3.4,.5,.1,0,.5,.4,0,.5,0-.5-1.2,.4-1.4-.2-.4,0-1.8,0-1.4,.7-.2-.4-1.5-.6-.7-.9-.4,0-.8-.2-1.1,0l.5,.2c-1.4,0-2.2-.5-3.1,.1l.5,.3c-.8,0-1.6,0-1.9-.7l.9-.2c-1.4,0-2.2,0-3.4,.4h.4c-1.5,.7-9.3,1.1-10.7,1.9l.6,.6-1.2,.4c.1,0,.6-1.8,.7-1.6-2.5,0-15.7-.2-18-.7-.9-.4-.1-.9-.1-1-1.2,.2-.5,.6-1.5,.5-.3-.1,0-.4,.2-.5-.4,0-.8-.2-.9,0,.5,.2,.3,.9,.5,1.4h-1.2v-.6c-.2,0-.7,1.2-1.9,.9-2.1-.3-4.3-.3-6.4-.5,0-.3,.5-.4,.9-.5-.3,0-.7,0-1-.2,.5,.5-.9,.3-.5,.5-1.6,1-3.5-.1-4.9,.6-.2,1-3.9,16.7-4,17.9-.4,0-.8,0-1-.2,0,.3,.9,.5,1.4,.3v-.6c1.1-.2,.3,.4,1.3,.4,0,.5-.9,.6-1.7,.6,.7,.1,1.4,.5,1.7,0,.7,.3-.1,.6,.7,.9,.6-.1,1.4-.6,2-.2h0c1.6,.7,2.5-.5,4,0l-.2,.2c.5,.3,1.6,0,2.5,.3-.3-.1-.5-.5,0-.5,1.1,.4,1.8,0,2.6,.5l.8-.5c3.8,.3,18.8,.3,22.7,.3h-.2c5.8,0,17.8,.5,23.8,0,.9,.5,2.2,.4,3.2,.6-.5-.2-.3-.6,0-.5,3,.1,.2-.3,3.2-.5,3.5-.4,16.6,.4,19.7,.8,1.6-.7,3.7-.1,5.3-.6l-.2,.2c1.7-.2,11.5,.5,13.5,.2h-.3c1.8-.6,1.5,.2,2.9,.5-.2-.8,1.3-1.3,1.9-1.3v.2c.8-.1,2.8-.8,4.2-1v.4c1.1-.5,3.4-.3,4.2-.4,2,.2,5,.9,7.6,.3l1.7,1.3h.2c0-.1,.6-4,.8-8.2,.2-4.3,0-8.9-1.8-10.5v-.4h-.6c-.8-.1-1.2,.4-1.1,0h1.1c-.8,0-.2-.3,0-.6-.3,0-.7,0-.9-.2-.2,.2,.1,.2,.2,.3-.4,.2-1,.6-1.6,.4-.8,0,0-.7-1-.8-5.1-.3-10.1-.8-15.3-.7-.1-.2,0-.2,.2-.3-1.6,.2-2.9,.1-4.4,.3-.4-.2-.5-.5-.6-.7,.2,.4-7.8,.4-8,.3Z"/>
        </g>
        <g>
          <path class="uuid-15681ac3-b7e1-46af-a439-00285ffd10d2" d="M19.5,19.5c.3-.5,.8-.5,1.2-.6-.4,.5-.7,.7-1.2,.6Z"/>
          <path class="uuid-15681ac3-b7e1-46af-a439-00285ffd10d2" d="M20.8,18.9h0Z"/>
          <path class="uuid-15681ac3-b7e1-46af-a439-00285ffd10d2" d="M110.4,37.6h-.4c.1,0,.3,0,.4,0Z"/>
          <path class="uuid-15681ac3-b7e1-46af-a439-00285ffd10d2" d="M42.8,17.6v.8c1.1,0,.4-.9,1.4-.7,.4,1.1,1.6-.1,2,.5,0,0,.5-.1,.4-.5,.2,.6,.5,.1,.8,.3,.1,.2,0,.2-.2,.4l.7,.2c.3-.2,.3-.6,0-.6,1.8-.2,10.6-1,12.5-.8-.2,.5-.9,.2-1.1,.9,.5,.4,.8-.2,1,.3,.2-1.1,1.1-.3,1.5-1.4l.2,.6,.2-.4c2.3,.6,.5,.3,2.5,0,1.2,0,1.8,.9,2.4,.5,0,0-.3,.4,0,.5,0-.5,.8,.4,.9-.2,.3,0,1.3,0,1,.7,.1-.4,1-.6,.5-.9,.3,0,.6-.2,.8,0l-.4,.2c1,0,1.5-.5,2.2,0l-.3,.3c.6,0,1.1,0,1.3-.7l-.6-.2c1,0,1.6,0,2.4,.3h-.3c1.1,.7,6.6,1,7.6,1.8l-.4,.6,.9,.4c0,0-.5-1.8-.6-1.6,1.8,0,11.1-.2,12.7-.7,.6-.4,0-.9,0-1,.8,.2,.4,.6,1.1,.5,.2-.1,0-.4-.2-.5,.3,0,.6-.2,.6,0-.4,.2-.2,.9-.3,1.4h.9v-.6c.1,0,.5,1.2,1.4,.9,1.5-.3,3.1-.2,4.5-.4,0-.3-.4-.4-.7-.5,.2,0,.5,0,.7-.2-.3,.5,.6,.3,.4,.5,1.2,1,2.5,0,3.5,.6,.1,1,3.1,16.7,3.1,17.9,.3,0,.6,0,.7-.2,0,.3-.6,.4-.9,.3v-.6c-.8-.2-.2,.4-.9,.4,0,.5,.6,.6,1.2,.6-.5,0-1,.5-1.2,0-.5,.2,0,.6-.5,.9-.4-.1-1-.6-1.4-.3h0c-1.1,.7-1.8-.6-2.8,0v.2c-.2,.3-1,0-1.6,.3,.2-.1,.3-.5,0-.5-.7,.4-1.3,0-1.8,.5l-.6-.5c-2.6,.3-13.2,.2-15.9,.3h.1c-4.1,0-12.5,.6-16.9,.1-.6,.5-1.6,.5-2.2,.6,.4-.2,.2-.6,0-.5-2.1,.1-.2-.3-2.3-.5-1.2-.2-4.2,0-7.1,.1-2.9,.2-5.8,.5-6.9,.7-1.2-.7-2.6-.1-3.8-.6v.2c-.5-.1-2.5,0-4.6,0-2.1,.1-4.1,.2-4.9,0h.2c-1.2-.6-1.1,.2-2,.5,.1-.8-.9-1.3-1.3-1.4v.2c-.6-.1-2-.9-3-1v.4c-.8-.5-2.4-.3-3-.4-1.4,.2-3.5,.9-5.3,.3l-1.2,1.3h-.2c0-.1-1.7-15.5,.7-18.8v-.4h.4c.6-.2,.8,.4,.8,0h-.8c.6,0,.2-.3,0-.6,.2,0,.5,0,.7-.2,.1,.2,0,.2-.2,.3,.3,.2,.7,.6,1.1,.4,.6,0,0-.7,.7-.8,3.6-.3,7.1-.8,10.8-.7,0-.2,0-.2-.1-.3,1.1,.2,2.1,.1,3.1,.3,.3-.2,.4-.5,.4-.7,0,.2,1.3,.3,2.7,.3,1.4,0,2.8,0,2.9,0Z"/>
        </g>
      </g>
      <g>
        <path d="M143.4,17.2c0,0-.1-.2-.1-.3,0-.2,.2-.4,.5-.4,.4,0,.7-.1,.8-.3,.2-.2,.3-.4,.3-.7,0-.3,0-.8,0-1.4V5.5c0-.6,0-1.1,0-1.4,0-.3-.1-.5-.3-.7-.2-.2-.5-.3-.8-.3-.3,0-.5-.2-.5-.4s0-.2,.1-.3c0,0,.2,0,.3,0h9.6c.2,0,.3,.1,.4,.3v.5l.2,1.8c0,.2,0,.4,0,.5,0,.1-.1,.2-.2,.2-.2,0-.4-.2-.4-.6,0-.6-.2-1-.4-1.3-.2-.3-.4-.4-.7-.5-.3,0-.8,0-1.4,0h-3.2c-.1,0-.2,0-.3,0,0,0,0,.2,0,.3v5.1c0,.1,0,.2,0,.3,0,0,.2,0,.3,0h2c.6,0,1.1,0,1.4,0,.3,0,.5-.2,.7-.4,.2-.2,.3-.5,.3-1,0-.4,.2-.5,.4-.5s.2,0,.3,.1c0,0,0,.2,0,.4v3.7c0,.2,0,.3,0,.4s-.2,.1-.3,.1c-.2,0-.3-.2-.4-.5,0-.5-.1-.8-.3-1-.2-.2-.4-.3-.7-.4-.3,0-.8,0-1.4,0h-2c-.1,0-.2,0-.3,0,0,0,0,.2,0,.3v5.3c0,.5,.3,.8,1,.8h2.5c.6,0,1.1,0,1.4-.1,.3,0,.6-.3,.8-.6,.2-.3,.4-.8,.5-1.5,.1-.5,.3-.8,.5-.8s.1,0,.2,.1c0,0,0,.2,0,.4s0,.3,0,.3l-.3,2.2v.8h-9.9c-.1,0-.3,0-.3,0Z"/>
        <path d="M164,11.7c.2,.6,.4,1.1,.4,1.7s-.2,1.4-.5,2c-.4,.6-.9,1.1-1.5,1.5-.7,.4-1.5,.6-2.4,.6s-.7,0-.9,0-.7-.2-1.3-.4c-.6-.2-1-.4-1.2-.4-.3,0-.4,.2-.5,.5,0,.2-.2,.3-.3,.3s-.1,0-.2,0c0,0,0-.2,0-.3v-4.5c0-.1,0-.2,0-.3,0,0,.1,0,.2,0,.2,0,.3,.1,.3,.3,.2,1.2,.6,2.1,1.2,2.9,.6,.7,1.4,1.1,2.5,1.1s1.6-.2,2.1-.6c.5-.4,.7-1,.7-1.6s0-.8-.3-1.2c-.2-.4-.5-.7-.8-1-.3-.2-1-.7-2.1-1.4-.9-.6-1.7-1.1-2.2-1.5-.5-.4-1-.9-1.3-1.4-.3-.5-.5-1.1-.5-1.8s.2-1.3,.5-1.9c.3-.6,.8-1,1.4-1.4,.6-.3,1.4-.5,2.3-.5s1.5,.2,2.1,.5c.4,.2,.6,.3,.8,.3s.3,0,.4-.1c0,0,.2-.2,.2-.4,0-.2,.2-.3,.3-.3s.1,0,.2,0c0,0,0,.2,0,.3V7c0,.2,0,.4-.2,.4s-.3-.1-.3-.3c-.2-1.1-.5-2-1.1-2.8-.6-.8-1.4-1.2-2.4-1.2s-1.4,.2-1.8,.6-.7,.9-.7,1.5,.2,.9,.5,1.3c.3,.4,.7,.8,1.1,1.1,.4,.3,1,.7,1.7,1.1,1.2,.7,2.1,1.3,2.6,1.7,.5,.4,.8,.9,1.1,1.4Z"/>
        <path d="M165.7,17.2c0,0-.1-.2-.1-.3,0-.2,.2-.4,.5-.4,.4,0,.7-.1,.8-.3,.2-.2,.3-.4,.3-.7,0-.3,0-.8,0-1.4V5.5c0-.6,0-1.1,0-1.4,0-.3-.1-.5-.3-.7-.2-.2-.5-.3-.8-.3-.3,0-.5-.2-.5-.4s0-.2,.1-.3c0,0,.2,0,.3,0h5.6c1.4,0,2.4,.3,3.2,1,.8,.7,1.2,1.6,1.2,2.8s-.2,1.6-.6,2.3c-.4,.7-.9,1.2-1.6,1.6-.7,.4-1.5,.6-2.3,.6s-.9,0-1.8-.2h0c-.2,0-.3,.1-.3,.3v3.3c0,.6,0,1.1,0,1.4,0,.3,.1,.5,.3,.7,.2,.2,.5,.3,.8,.3,.3,0,.5,.1,.5,.4s0,.2-.1,.3c0,0-.2,0-.3,0h-4.5c-.1,0-.3,0-.3,0Zm3.9-7.5c.4,0,.8,.1,1.2,.1,.6,0,1.1-.2,1.5-.5,.4-.3,.8-.7,1-1.2,.2-.5,.4-1.1,.4-1.7,0-.9-.3-1.7-.8-2.3-.5-.6-1.2-.9-2.1-.9s-.8,0-1.1,.1c-.2,0-.3,.2-.3,.4v5.5c0,.2,.1,.3,.3,.4Z"/>
        <path d="M176.6,17c0-.2,0-.4,.3-.4,.4,0,.7-.2,1-.6,.3-.3,.6-.9,.8-1.6l4.6-12.1c0-.2,.2-.3,.3-.3s.3,0,.4,.3l4.7,12.1c.3,.7,.6,1.3,.9,1.6,.3,.3,.6,.5,1,.6,.2,0,.3,.1,.3,.4s0,.4-.3,.4h-4.4c-.2,0-.3,0-.4,0,0,0-.1-.2-.1-.3,0-.2,.2-.4,.6-.4,.3,0,.6,0,.7-.1,.1,0,.2-.2,.2-.4s0-.3-.1-.5c0-.2-.1-.4-.2-.4l-.3-.7-.7-1.8c0-.2-.2-.3-.4-.3h-4.6c-.2,0-.3,0-.4,.3l-.7,1.8-.3,.7c0,0,0,.2-.2,.4,0,.2-.1,.4-.1,.5,0,.2,0,.3,.2,.4,.1,0,.4,.1,.8,.1,.4,0,.6,.1,.6,.4s0,.2-.1,.3c0,0-.2,0-.4,0h-3.2c-.2,0-.3-.1-.3-.4Zm4.4-5.8c0,.2,.1,.3,.3,.3h3.6c.2,0,.3,0,.3-.3v-.2l-1.9-4.8c0-.2-.1-.2-.2-.2s-.2,0-.2,.2l-1.8,4.8v.2Z"/>
        <path d="M192.5,6.5c.6-1.2,1.4-2.2,2.5-3,1.1-.8,2.3-1.2,3.7-1.2s1,0,1.4,.2c.4,.1,.9,.3,1.4,.6,.1,0,.3,.1,.3,.2,0,0,.2,0,.2,0,.3,0,.6-.2,.7-.7,0-.2,.2-.3,.3-.3s.2,.1,.2,.3l.3,4.4h0c0,.2,0,.2,0,.3,0,0,0,0-.2,0-.1,0-.2,0-.3-.3-.3-1.2-.8-2.1-1.5-2.9-.7-.7-1.6-1.1-2.8-1.1s-2.1,.4-2.8,1.1c-.7,.7-1.2,1.6-1.5,2.6-.3,1-.5,2.1-.5,3.1s.2,2.1,.5,3.1c.3,1,.9,1.8,1.6,2.5,.8,.7,1.7,1,2.9,1s1.3-.1,1.8-.4,.9-.5,1.3-.9c.4-.4,.8-.9,1.2-1.5,.1-.2,.3-.2,.4-.2,0,0,.1,.1,.1,.2s0,.2,0,.2c-.6,1.1-1.4,2-2.2,2.6-.9,.6-2,.9-3.3,.9s-2.7-.4-3.7-1.1c-1-.7-1.7-1.7-2.2-2.8-.5-1.1-.7-2.2-.7-3.4s.3-2.5,.9-3.8Z"/>
        <path d="M204.9,17.2c0,0-.1-.2-.1-.3,0-.2,.2-.4,.5-.4,.4,0,.7-.1,.8-.3,.2-.2,.3-.4,.3-.7,0-.3,0-.8,0-1.4V5.5c0-.6,0-1.1,0-1.4,0-.3-.1-.5-.3-.7-.2-.2-.5-.3-.8-.3-.3,0-.5-.2-.5-.4s0-.2,.1-.3c0,0,.2,0,.3,0h4.5c.1,0,.3,0,.3,0,0,0,.1,.2,.1,.3,0,.2-.2,.3-.5,.4-.4,0-.7,.1-.8,.3-.2,.2-.3,.4-.3,.7,0,.3,0,.8,0,1.4V14.2c0,.6,0,1.1,0,1.4,0,.3,.1,.5,.3,.7,.2,.2,.5,.3,.8,.3,.3,0,.5,.1,.5,.4s0,.2-.1,.3c0,0-.2,0-.3,0h-4.5c-.1,0-.3,0-.3,0Z"/>
        <path d="M212.1,5.9c.6-1.2,1.4-2.1,2.4-2.7,1-.7,2.1-1,3.3-1s2.3,.3,3.3,1,1.8,1.6,2.4,2.7c.6,1.2,.9,2.4,.9,3.9s-.3,2.7-.9,3.9c-.6,1.2-1.4,2.1-2.4,2.8-1,.7-2.1,1-3.4,1s-2.4-.3-3.4-1c-1-.7-1.8-1.6-2.4-2.8-.6-1.2-.9-2.5-.9-3.9s.3-2.7,.9-3.9Zm3.7,9c.9,1,1.9,1.5,2.9,1.5s.6,0,1-.2c.9-.3,1.6-.8,2-1.6,.5-.8,.7-1.8,.7-2.9s-.2-1.9-.5-3.1c-.5-1.6-1.1-2.8-2-3.8-.9-.9-1.8-1.4-2.9-1.4s-.8,0-1.1,.2c-.9,.3-1.6,.8-2,1.6-.5,.8-.7,1.7-.7,2.8s.2,2,.5,3.1c.5,1.6,1.2,2.9,2,3.8Z"/>
        <path d="M144.4,27.5c.6-1.2,1.4-2.2,2.5-3,1.1-.8,2.3-1.2,3.7-1.2s1,0,1.4,.2c.4,.1,.9,.3,1.4,.6,.1,0,.3,.1,.3,.2,0,0,.2,0,.2,0,.3,0,.6-.2,.7-.7,0-.2,.2-.3,.3-.3s.2,.1,.2,.3l.3,4.4h0c0,.2,0,.2,0,.3,0,0,0,0-.2,0-.1,0-.2,0-.3-.3-.3-1.2-.8-2.1-1.5-2.9-.7-.7-1.6-1.1-2.8-1.1s-2.1,.4-2.8,1.1c-.7,.7-1.2,1.6-1.5,2.6-.3,1-.5,2.1-.5,3.1s.2,2.1,.5,3.1c.3,1,.9,1.8,1.6,2.5,.8,.7,1.7,1,2.9,1s1.3-.1,1.8-.4,.9-.5,1.3-.9c.4-.4,.8-.9,1.2-1.5,.1-.2,.3-.2,.4-.2,0,0,.1,.1,.1,.2s0,.2,0,.2c-.6,1.1-1.4,2-2.2,2.6-.9,.6-2,.9-3.3,.9s-2.7-.4-3.7-1.1c-1-.7-1.7-1.7-2.2-2.8-.5-1.1-.7-2.2-.7-3.4s.3-2.5,.9-3.8Z"/>
        <path d="M156.8,38.2c0,0-.1-.2-.1-.3,0-.2,.2-.4,.5-.4,.4,0,.7-.1,.8-.3,.2-.2,.3-.4,.3-.7,0-.3,0-.8,0-1.4v-8.7c0-.6,0-1.1,0-1.4,0-.3-.1-.5-.3-.7-.2-.2-.5-.3-.8-.3-.3,0-.5-.2-.5-.4s0-.2,.1-.3c0,0,.2,0,.3,0h9.6c.2,0,.3,.1,.4,.3v.5l.2,1.8c0,.2,0,.4,0,.5,0,.1-.1,.2-.2,.2-.2,0-.4-.2-.4-.6,0-.6-.2-1-.4-1.3-.2-.3-.4-.4-.7-.5-.3,0-.8,0-1.4,0h-3.2c-.1,0-.2,0-.3,0,0,0,0,.2,0,.3v5.1c0,.1,0,.2,0,.3,0,0,.2,0,.3,0h2c.6,0,1.1,0,1.4,0,.3,0,.5-.2,.7-.4,.2-.2,.3-.5,.3-1,0-.4,.2-.5,.4-.5s.2,0,.3,.1c0,0,0,.2,0,.4v3.7c0,.2,0,.3,0,.4s-.2,.1-.3,.1c-.2,0-.3-.2-.4-.5,0-.5-.1-.8-.3-1-.2-.2-.4-.3-.7-.4-.3,0-.8,0-1.4,0h-2c-.1,0-.2,0-.3,0,0,0,0,.2,0,.3v5.3c0,.5,.3,.8,1,.8h2.5c.6,0,1.1,0,1.4-.1,.3,0,.6-.3,.8-.6,.2-.3,.4-.8,.5-1.5,.1-.5,.3-.8,.5-.8s.1,0,.2,.1c0,0,0,.2,0,.4s0,.3,0,.3l-.3,2.2v.8h-9.9c-.1,0-.3,0-.3,0Z"/>
        <path d="M168.4,38.2c0,0-.1-.2-.1-.3,0-.2,.2-.4,.5-.4,.4,0,.7-.1,.8-.3,.2-.2,.3-.4,.3-.7,0-.3,0-.8,0-1.4v-8.7c0-.6,0-1.1,0-1.4,0-.3-.1-.5-.3-.7-.2-.2-.5-.3-.8-.3-.3,0-.5-.2-.5-.4s0-.2,.1-.3c0,0,.2,0,.3,0h5.6c.9,0,1.7,.2,2.5,.5,.7,.3,1.3,.8,1.8,1.4,.4,.6,.6,1.3,.6,2s-.3,1.8-1,2.5c-.6,.7-1.4,1.2-2.4,1.5-.2,0-.3,.2-.3,.3s0,0,0,.2l2.7,4.1c.4,.6,.8,1.1,1.2,1.4,.4,.3,.8,.5,1.2,.5,.2,0,.3,.1,.3,.4s0,.2,0,.3c0,0-.1,0-.2,0h-4.2c-.1,0-.3,0-.3,0,0,0-.1-.2-.1-.3,0-.2,.2-.4,.5-.4,.4,0,.6-.1,.6-.3s0-.2-.1-.3c0-.1-.2-.3-.3-.5-.4-.5-.6-.8-.6-.8l-2.7-4.1c0-.2-.2-.2-.4-.2h-.7c-.1,0-.2,0-.3,.1,0,0,0,.2,0,.3v3.4c0,.6,0,1.1,0,1.4,0,.3,.1,.5,.3,.7,.2,.2,.5,.3,.8,.3,.3,0,.5,.1,.5,.4s0,.2-.1,.3c0,0-.2,0-.3,0h-4.5c-.1,0-.3,0-.3,0Zm4-7.7c.5,0,.9,0,1.2,0,.6,0,1.2-.1,1.7-.4,.5-.3,1-.6,1.3-1.1,.3-.5,.5-1,.5-1.6s-.2-1.2-.5-1.6c-.3-.5-.8-.9-1.3-1.2-.5-.3-1.1-.4-1.7-.4s-.8,0-1.1,.1c-.2,0-.3,.2-.3,.4v5.4c0,.2,.1,.3,.3,.4Z"/>
        <path d="M181.5,38c0-.2,0-.4,.3-.4,.4,0,.7-.2,1-.6,.3-.3,.6-.9,.8-1.6l4.6-12.1c0-.2,.2-.3,.3-.3s.3,0,.4,.3l4.7,12.1c.3,.7,.6,1.3,.9,1.6,.3,.3,.6,.5,1,.6,.2,0,.3,.1,.3,.4s0,.4-.3,.4h-4.4c-.2,0-.3,0-.4,0,0,0-.1-.2-.1-.3,0-.2,.2-.4,.6-.4,.3,0,.6,0,.7-.1,.1,0,.2-.2,.2-.4s0-.3-.1-.5c0-.2-.1-.4-.2-.4l-.3-.7-.7-1.8c0-.2-.2-.3-.4-.3h-4.6c-.2,0-.3,0-.4,.3l-.7,1.8-.3,.7c0,0,0,.2-.2,.4,0,.2-.1,.4-.1,.5,0,.2,0,.3,.2,.4,.1,0,.4,.1,.8,.1,.4,0,.6,.1,.6,.4s0,.2-.1,.3c0,0-.2,0-.4,0h-3.2c-.2,0-.3-.1-.3-.4Zm4.4-5.8c0,.2,.1,.3,.3,.3h3.6c.2,0,.3,0,.3-.3v-.2l-1.9-4.8c0-.2-.1-.2-.2-.2s-.2,0-.2,.2l-1.8,4.8v.2Zm5.4-13.6c0,0,0,.2,0,.2l-2.9,3.2c-.1,.1-.2,.2-.4,.2s-.2,0-.2-.2v-.2l1-3.2c0-.2,.2-.3,.4-.3h1.8c.2,0,.3,0,.3,.2Z"/>
        <path d="M213.1,23.5c0,0,.1,.2,.1,.3,0,.2-.1,.3-.4,.4-.4,0-.6,.1-.8,.3-.2,.2-.3,.4-.3,.7,0,.3,0,.8,0,1.4v8.7c0,.6,0,1.1,0,1.4,0,.3,.1,.5,.3,.7,.2,.2,.5,.3,.8,.3,.3,0,.5,.1,.5,.4s0,.2-.1,.3c0,0-.2,0-.3,0h-4.5c-.1,0-.3,0-.3,0,0,0-.1-.2-.1-.3,0-.2,.2-.4,.5-.4,.4,0,.7-.1,.8-.3,.2-.2,.3-.4,.3-.7,0-.3,0-.8,0-1.4v-8.2c0,0,0-.2,0-.2,0,0,0,0-.1,0,0,0-.2,0-.2,.2l-4.5,11.2c0,.2-.2,.3-.4,.3s-.3,0-.4-.3l-4.5-10.9c0-.1-.1-.2-.2-.2s-.2,0-.2,.3v8c0,.6,0,1.1,0,1.4,0,.3,.1,.5,.3,.7,.2,.2,.5,.3,.8,.3,.3,0,.5,.1,.5,.4s0,.2-.1,.3c0,0-.2,0-.3,0h-3.4c-.1,0-.3,0-.3,0,0,0-.1-.2-.1-.3,0-.2,.2-.4,.5-.4,.4,0,.7-.1,.8-.3,.2-.2,.3-.4,.3-.7,0-.3,0-.8,0-1.4v-8.7c0-.6,0-1.1,0-1.4,0-.3-.1-.5-.3-.7-.2-.2-.4-.3-.8-.3-.3,0-.4-.2-.4-.4s0-.2,.1-.3c0,0,.2,0,.3,0h2.8c.2,0,.3,0,.4,.3l4.5,10.5c0,.1,.1,.2,.2,.2s.2,0,.2-.2l4.3-10.5c0-.2,.2-.3,.4-.3h2.9c.1,0,.2,0,.3,0Z"/>
        <path d="M214.2,38.2c0,0-.1-.2-.1-.3,0-.2,.2-.4,.5-.4,.4,0,.7-.1,.8-.3,.2-.2,.3-.4,.3-.7,0-.3,0-.8,0-1.4v-8.7c0-.6,0-1.1,0-1.4,0-.3-.1-.5-.3-.7-.2-.2-.5-.3-.8-.3-.3,0-.5-.2-.5-.4s0-.2,.1-.3c0,0,.2,0,.3,0h4.5c.1,0,.3,0,.3,0,0,0,.1,.2,.1,.3,0,.2-.2,.3-.5,.4-.4,0-.7,.1-.8,.3-.2,.2-.3,.4-.3,.7,0,.3,0,.8,0,1.4v8.7c0,.6,0,1.1,0,1.4,0,.3,.1,.5,.3,.7,.2,.2,.5,.3,.8,.3,.3,0,.5,.1,.5,.4s0,.2-.1,.3c0,0-.2,0-.3,0h-4.5c-.1,0-.3,0-.3,0Z"/>
        <path d="M221.4,27.5c.6-1.2,1.4-2.2,2.5-3,1.1-.8,2.3-1.2,3.7-1.2s1,0,1.4,.2c.4,.1,.9,.3,1.4,.6,.1,0,.3,.1,.3,.2,0,0,.2,0,.2,0,.3,0,.6-.2,.7-.7,0-.2,.2-.3,.3-.3s.2,.1,.2,.3l.3,4.4h0c0,.2,0,.2,0,.3,0,0,0,0-.2,0-.1,0-.2,0-.3-.3-.3-1.2-.8-2.1-1.5-2.9-.7-.7-1.6-1.1-2.8-1.1s-2.1,.4-2.8,1.1c-.7,.7-1.2,1.6-1.5,2.6-.3,1-.5,2.1-.5,3.1s.2,2.1,.5,3.1c.3,1,.9,1.8,1.6,2.5,.8,.7,1.7,1,2.9,1s1.3-.1,1.8-.4,.9-.5,1.3-.9c.4-.4,.8-.9,1.2-1.5,.1-.2,.3-.2,.4-.2,0,0,.1,.1,.1,.2s0,.2,0,.2c-.6,1.1-1.4,2-2.2,2.6-.9,.6-2,.9-3.3,.9s-2.7-.4-3.7-1.1c-1-.7-1.7-1.7-2.2-2.8-.5-1.1-.7-2.2-.7-3.4s.3-2.5,.9-3.8Z"/>
        <path d="M233.5,38c0-.2,0-.4,.3-.4,.4,0,.7-.2,1-.6,.3-.3,.6-.9,.8-1.6l4.6-12.1c0-.2,.2-.3,.3-.3s.3,0,.4,.3l4.7,12.1c.3,.7,.6,1.3,.9,1.6,.3,.3,.6,.5,1,.6,.2,0,.3,.1,.3,.4s0,.4-.3,.4h-4.4c-.2,0-.3,0-.4,0,0,0-.1-.2-.1-.3,0-.2,.2-.4,.6-.4,.3,0,.6,0,.7-.1,.1,0,.2-.2,.2-.4s0-.3-.1-.5c0-.2-.1-.4-.2-.4l-.3-.7-.7-1.8c0-.2-.2-.3-.4-.3h-4.6c-.2,0-.3,0-.4,.3l-.7,1.8-.3,.7c0,0,0,.2-.2,.4,0,.2-.1,.4-.1,.5,0,.2,0,.3,.2,.4,.1,0,.4,.1,.8,.1,.4,0,.6,.1,.6,.4s0,.2-.1,.3c0,0-.2,0-.4,0h-3.2c-.2,0-.3-.1-.3-.4Zm4.4-5.8c0,.2,.1,.3,.3,.3h3.6c.2,0,.3,0,.3-.3v-.2l-1.9-4.8c0-.2-.1-.2-.2-.2s-.2,0-.2,.2l-1.8,4.8v.2Z"/>
      </g>
    </g>
  </g>
</svg>